<svg width="200" height="600" viewBox="0 0 200 600" fill="none" xmlns="http://www.w3.org/2000/svg">
<path opacity="0.5" d="M160.931 79.5465C120.723 25.6255 50.6978 -8.2078 -15.1436 -2.2731C-80.9851 3.66159 -145.826 50.9274 -172.339 115.3313C-186.389 148.628 -190.154 185.495 -210.109 215.704C-230.516 246.576 -265.198 264.603 -299.294 280.993C-333.389 297.384 -370.051 314.72 -396.744 340.194C-423.438 365.667 -439.401 405.818 -423.438 439.1C-407.158 472.863 -365.098 486.763 -335.055 510.549C-305.012 534.336 -286.458 568.913 -256.872 592.007C-229.305 613.579 -194.628 622.743 -159.569 622.683C-124.51 622.623 -89.9625 613.79 -57.9518 601.96C40.0176 563.385 130.775 493.905 170.67 397.451C245.111 215.497 160.931 79.5465 160.931 79.5465Z" fill="#2d2d2d"/>
</svg>